<svg width="464" height="125" viewBox="0 0 464 125" fill="none" xmlns="http://www.w3.org/2000/svg">
<path d="M0 123.169V34.4541H28.9655L30.2972 52.4301L23.9714 54.4274C25.0812 50.2108 27.2453 46.4936 30.4637 43.2756C33.6821 39.9467 37.5108 37.3391 41.95 35.4527C46.3891 33.5664 51.0502 32.6232 55.9333 32.6232C62.592 32.6232 68.1964 34.0102 72.7466 36.7843C77.4077 39.4474 80.9035 43.4976 83.2341 48.9348C85.6756 54.261 86.8964 60.8078 86.8964 68.5752V123.169H55.9333V71.0719C55.9333 68.1869 55.4894 65.8012 54.6016 63.9148C53.7137 61.9174 52.382 60.4194 50.6063 59.4208C48.8307 58.4221 46.7221 57.9783 44.2805 58.0892C42.3939 58.0892 40.6182 58.3666 38.9535 58.9214C37.3998 59.4763 36.0126 60.364 34.7918 61.5846C33.5711 62.6942 32.6278 63.9703 31.9619 65.4128C31.407 66.8553 31.1295 68.4643 31.1295 70.2397V123.169H15.648C11.8747 123.169 8.65634 123.169 5.99285 123.169C3.44034 123.169 1.44272 123.169 0 123.169Z" fill="white"/>
<path d="M103.929 123.169V0H134.893V123.169H103.929Z" fill="white"/>
<path d="M183.894 124.667C176.569 124.667 169.966 122.725 164.084 118.842C158.313 114.847 153.708 109.41 150.267 102.53C146.938 95.5393 145.273 87.6054 145.273 78.7284C145.273 69.6294 146.938 61.64 150.267 54.7603C153.597 47.8806 158.202 42.4989 164.084 38.6152C169.966 34.6205 176.736 32.6232 184.393 32.6232C188.5 32.6232 192.273 33.178 195.713 34.2876C199.154 35.3972 202.15 37.0062 204.702 39.1145C207.255 41.2228 209.475 43.6085 211.361 46.2716C213.248 48.9348 214.802 51.8198 216.022 54.9268L209.697 54.5939V34.4541H240.16V123.169H209.031V101.531L215.856 101.864C214.857 105.082 213.359 108.078 211.361 110.852C209.475 113.626 207.144 116.067 204.37 118.176C201.595 120.173 198.488 121.782 195.047 123.003C191.718 124.112 188 124.667 183.894 124.667ZM192.717 99.2011C196.268 99.2011 199.32 98.4243 201.873 96.8708C204.425 95.2064 206.367 92.8207 207.699 89.7137C209.142 86.6068 209.863 82.945 209.863 78.7284C209.863 74.4008 209.142 70.6835 207.699 67.5766C206.367 64.4696 204.425 62.1394 201.873 60.5859C199.32 58.9214 196.268 58.0892 192.717 58.0892C189.165 58.0892 186.114 58.9214 183.561 60.5859C181.119 62.1394 179.233 64.4696 177.901 67.5766C176.569 70.6835 175.904 74.4008 175.904 78.7284C175.904 82.945 176.569 86.6068 177.901 89.7137C179.233 92.8207 181.119 95.2064 183.561 96.8708C186.114 98.4243 189.165 99.2011 192.717 99.2011Z" fill="white"/>
<path d="M298.074 124.834C289.307 124.834 281.427 122.836 274.436 118.842C267.555 114.847 262.117 109.41 258.122 102.53C254.127 95.5393 252.129 87.6054 252.129 78.7284C252.129 69.8513 254.127 61.9729 258.122 55.0932C262.117 48.1025 267.555 42.6099 274.436 38.6152C281.427 34.6205 289.307 32.6232 298.074 32.6232C306.065 32.6232 313.389 33.8992 320.048 36.4514C326.818 39.0035 332.2 42.6653 336.195 47.4368L319.382 67.4101C318.161 65.8566 316.608 64.4696 314.721 63.249C312.834 61.9174 310.726 60.9188 308.395 60.253C306.176 59.4763 303.679 59.0879 300.904 59.0879C297.242 59.0879 294.023 59.9201 291.249 61.5846C288.475 63.249 286.31 65.5792 284.757 68.5752C283.314 71.4603 282.593 74.7892 282.593 78.5619C282.593 82.3347 283.314 85.6636 284.757 88.5486C286.199 91.4336 288.308 93.7639 291.083 95.5393C293.968 97.3147 297.242 98.2024 300.904 98.2024C303.679 98.2024 306.176 97.8695 308.395 97.2037C310.726 96.538 312.779 95.5948 314.555 94.3742C316.441 93.1536 318.05 91.7111 319.382 90.0466L336.195 110.186C332.089 114.847 326.651 118.453 319.882 121.005C313.223 123.557 305.954 124.834 298.074 124.834Z" fill="white"/>
<path d="M387.768 124.834C377.669 124.834 368.957 122.892 361.633 119.008C354.308 115.013 348.648 109.576 344.653 102.696C340.658 95.7057 338.66 87.7719 338.66 78.8948C338.66 72.237 339.77 66.0786 341.989 60.4194C344.209 54.7603 347.316 49.8779 351.311 45.7723C355.307 41.5557 360.023 38.3378 365.461 36.1185C371.01 33.7883 377.059 32.6232 383.606 32.6232C390.043 32.6232 395.869 33.7328 401.085 35.9521C406.412 38.1713 410.963 41.3338 414.736 45.4394C418.62 49.5451 421.561 54.372 423.559 59.9201C425.667 65.4683 426.611 71.5712 426.389 78.229L426.222 85.2197H356.306L352.477 69.7403H401.418L398.422 73.0692V69.9068C398.422 67.4656 397.756 65.3573 396.424 63.5819C395.204 61.6955 393.539 60.253 391.43 59.2543C389.322 58.2557 386.936 57.7563 384.272 57.7563C380.499 57.7563 377.336 58.5331 374.783 60.0866C372.342 61.5291 370.455 63.6374 369.124 66.4114C367.792 69.1855 367.126 72.5144 367.126 76.3981C367.126 80.8367 368.014 84.6649 369.789 87.8828C371.676 91.1008 374.395 93.5974 377.946 95.3728C381.609 97.1482 386.048 98.036 391.264 98.036C394.704 98.036 397.701 97.5921 400.253 96.7044C402.917 95.8167 405.747 94.2632 408.743 92.0439L423.059 112.184C419.175 115.291 415.235 117.787 411.24 119.674C407.356 121.449 403.471 122.725 399.587 123.502C395.703 124.39 391.763 124.834 387.768 124.834Z" fill="white"/>
<path d="M448.352 125C443.358 125 439.474 123.613 436.699 120.839C434.036 118.065 432.704 114.126 432.704 109.021C432.704 104.361 434.147 100.533 437.032 97.5366C439.918 94.5406 443.691 93.0426 448.352 93.0426C453.235 93.0426 457.064 94.4297 459.838 97.2037C462.613 99.9778 464 103.917 464 109.021C464 113.682 462.557 117.51 459.672 120.506C456.786 123.502 453.013 125 448.352 125Z" fill="white"/>
</svg>
